PathFileType	4	(X/Y/Z)	../Python\walking\Walking16\task.trc
DataRate	CameraRate	NumFrames	NumMarkers	Units	OrigDataRate	OrigDataStartFrame	OrigNumFrames
200.000000	200.000000	7	30	mm	200.000000	60	452
Frame#	Time	C7			RBAK			CLAV			STRN			RASI			LASI			PE01			RTH1			RTH2			RTH3			RD5M			RTOE			LTH2			LTH3			LTB2			LTB3			LHEE			LTOE			LD5M			LTB1			RTB2			RHEE			RTB3			RTB1			LTH1			LPSI			PE03			PE02			RPSI			T10			
		X1	Y1	Z1	X2	Y2	Z2	X3	Y3	Z3	X4	Y4	Z4	X5	Y5	Z5	X6	Y6	Z6	X7	Y7	Z7	X8	Y8	Z8	X9	Y9	Z9	X10	Y10	Z10	X11	Y11	Z11	X12	Y12	Z12	X13	Y13	Z13	X14	Y14	Z14	X15	Y15	Z15	X16	Y16	Z16	X17	Y17	Z17	X18	Y18	Z18	X19	Y19	Z19	X20	Y20	Z20	X21	Y21	Z21	X22	Y22	Z22	X23	Y23	Z23	X24	Y24	Z24	X25	Y25	Z25	X26	Y26	Z26	X27	Y27	Z27	X28	Y28	Z28	X29	Y29	Z29	X30	Y30	Z30	

61	0.44	-914.7604370117192	1359.702026367188	167.9496307373047	-951.7299194335942	1264.212158203125	283.240936279297	-800.4270629882817	1259.453002929688	150.9388580322266	-748.5854492187502	1072.783935546875	151.278305053711	-779.5331420898442	880.3783569335942	295.7737426757814	-786.8452148437505	873.726684570313	69.39234161376956	-975.5875854492192	960.5405883789067	200.8135833740236	-849.7022094726567	586.2907714843752	320.5686340332032	-835.980346679688	510.4383239746096	300.3313598632814	-805.9721069335942	564.6030883789065	305.7022705078126	-829.641479492188	15.88947010040284	269.7314453125001	-792.3881835937505	29.27380561828615	215.319061279297	-768.2094726562505	561.2354125976565	47.67933654785158	-717.1063232421877	618.647644042969	32.11888885498048	-820.7988281250005	254.5514678955079	64.25254058837893	-773.0386352539067	268.3413391113282	62.10400390625003	-904.869506835938	90.66118621826175	131.8358306884766	-727.2558593750002	48.04851913452151	98.59095001220709	-770.8776245117192	42.4469451904297	61.27357101440433	-790.3352050781255	327.3770446777345	50.61639404296878	-893.7355346679692	249.111053466797	287.4474487304689	-980.062377929688	28.16040229797365	204.5862274169923	-869.2645874023442	210.0471954345704	267.6419067382814	-847.1109008789067	285.7083129882814	274.5812377929689	-767.2244873046877	620.2957153320315	31.90378761291505	-982.1957397460942	922.5946655273442	160.5901184082032	-992.8619995117192	900.3986206054692	176.1839599609376	-991.039428710938	901.279663085938	226.8960418701173	-976.084350585938	928.051879882813	249.3975982666017	-955.221069335938	1063.005615234375	191.4292449951172	
62	0.445	-908.4016113281255	1359.360473632813	167.8567199707032	-945.002075195313	1264.163208007813	283.550750732422	-794.2080688476567	1259.070922851563	150.6228942871094	-742.5391235351565	1072.446044921875	151.1410064697266	-773.1387329101567	880.192260742188	295.960174560547	-780.0567016601567	873.922485351563	69.67082214355472	-969.1679077148442	959.9823608398442	200.8041381835939	-845.764038085938	586.164733886719	320.407440185547	-832.9346313476567	510.2226562500002	300.0306396484376	-802.384399414063	564.0561523437502	305.1311645507814	-829.6413574218755	15.92553234100343	269.6936645507814	-792.383178710938	29.22906494140626	215.2647552490236	-759.7124633789065	561.7767333984377	48.47468948364261	-709.043151855469	619.5669555664065	32.77489089965822	-804.4284057617192	251.0708312988282	64.20219421386722	-757.1654052734377	266.5222167968751	62.19322204589847	-882.6608276367192	84.25776672363284	131.2574920654297	-703.5059814453127	47.69179916381837	98.4532089233399	-746.8806762695315	40.67994689941408	60.99346542358401	-776.516723632813	324.9511108398439	50.73602676391604	-892.9165649414067	249.0850677490236	287.3825683593751	-980.0524291992192	28.25130462646486	204.5419464111329	-868.632446289063	209.9648590087892	267.5469970703126	-846.1748046875005	285.523406982422	274.4456481933595	-759.129577636719	620.7861328125002	32.67955780029298	-975.7024536132817	922.004516601563	160.5636749267579	-986.3262329101567	899.8371582031255	176.1066894531251	-984.5717773437505	900.6804199218755	226.8244781494142	-969.6607055664067	927.500366210938	249.3962860107423	-948.9817504882817	1062.663452148438	191.6972351074219	
63	0.45	-902.0560913085942	1358.919067382813	167.7581787109376	-938.291137695313	1264.002807617188	283.8475952148439	-787.991577148438	1258.590454101563	150.3180389404297	-736.4760742187502	1072.014038085938	151.0221405029297	-766.7398071289065	879.9260253906255	296.154266357422	-773.2041625976567	874.0046386718755	69.9416198730469	-962.7299194335942	959.310913085938	200.7091674804689	-841.805053710938	586.0075683593752	320.2812805175782	-829.869262695313	509.9894104003909	299.7483215332032	-798.7864379882817	563.4908447265627	304.5731201171876	-829.6423339843755	15.95418357849122	269.6667785644532	-792.3676147460942	29.18416213989259	215.2070465087892	-751.432312011719	562.138854980469	49.259147644043	-701.1072387695315	620.2659301757815	33.47025299072267	-788.0803222656255	247.6121673583986	64.1872253417969	-741.3867187500002	264.7290344238282	62.27937316894534	-860.2463989257817	78.05179595947268	130.6921844482422	-679.7661743164065	47.56250381469728	98.30345153808599	-722.8418579101565	39.14178848266603	60.71353530883792	-762.8166503906252	322.4654846191407	50.88796997070315	-892.110229492188	249.0679626464845	287.3475036621095	-980.0432128906255	28.35433387756349	204.504608154297	-868.0080566406255	209.8848724365236	267.4897460937501	-845.2423706054692	285.3397521972657	274.3540344238282	-751.1755371093752	621.1038818359377	33.45649337768556	-969.1747436523442	921.2860717773442	160.4705505371094	-979.7617797851567	899.149780273438	175.9648132324219	-978.0914916992192	899.9768066406255	226.6871948242189	-963.237182617188	926.8452148437505	249.3222808837892	-942.740844726563	1062.209350585938	191.9141693115235	
64	0.455	-895.7224731445317	1358.378540039063	167.6535034179688	-931.5956420898442	1263.73095703125	284.1310424804689	-781.7754516601567	1258.011840820313	150.0234375000001	-730.3933105468752	1071.487426757813	150.920639038086	-760.3363037109377	879.578491210938	296.3563537597657	-766.2897949218752	873.9705200195317	70.20294189453128	-956.2715454101567	958.5287475585942	200.5285949707032	-837.8317871093755	585.8198242187502	320.191375732422	-826.796264648438	509.736267089844	299.4896240234376	-795.1835937500005	562.9051513671877	304.0369567871095	-829.6455078125005	15.9767770767212	269.6507568359376	-792.3425292968755	29.14040946960451	215.1470794677736	-743.3581542968752	562.314147949219	50.02145004272464	-693.2952270507815	620.7365722656252	34.20904541015626	-771.767944335938	244.1917419433595	64.20795440673831	-725.7163696289065	262.9744262695314	62.36364364624026	-837.657836914063	72.0851745605469	130.1448059082032	-656.0713500976565	47.68252563476564	98.14310455322271	-698.7969970703127	37.85911560058595	60.43572616577151	-749.240661621094	319.927703857422	51.07260894775393	-891.3151855468755	249.0613708496095	287.3415832519532	-980.0352172851567	28.47056579589845	204.4736328125001	-867.3883666992192	209.8066864013673	267.4700012207032	-844.3091430664067	285.1567687988282	274.3072204589845	-743.3535766601565	621.2429199218752	34.2240676879883	-962.6123046875005	920.441772460938	160.312240600586	-973.1686401367192	898.3395996093755	175.7583618164063	-971.5991210937505	899.1721191406255	226.4840545654298	-956.814086914063	926.088989257813	249.175018310547	-936.4963989257817	1061.644287109375	192.0803375244142	
65	0.46	-889.3989868164067	1357.740356445313	167.5420379638672	-924.9145507812505	1263.348754882813	284.4004516601564	-775.5573730468755	1257.3359375	149.7380981445313	-724.2878417968752	1070.866088867188	150.8354034423829	-753.9282226562502	879.148803710938	296.5667114257814	-759.3161621093752	873.8184204101567	70.45343780517581	-949.790649414063	957.6392211914067	200.2630920410157	-833.851440429688	585.6018676757815	320.1382446289064	-823.726684570313	509.4609375000002	299.2601318359376	-791.5813598632817	562.2966308593752	303.5328063964845	-829.6518554687505	15.99452590942384	269.6452636718751	-792.3093872070317	29.09860610961915	215.0863494873048	-735.4786376953127	562.2967529296877	50.75053405761722	-685.6031494140627	620.9731445312502	34.99060440063478	-755.5047607421877	240.8257293701173	64.2636413574219	-710.167907714844	261.2705688476564	62.44717025756839	-814.9301147460942	66.39857482910159	129.6197509765626	-632.4573364257815	48.07400131225589	97.97335815429693	-674.7838134765627	36.85798645019533	60.16154479980472	-735.7930297851565	317.3457336425782	51.28936767578128	-890.5285644531255	249.0662841796876	287.3638000488282	-980.0290527343755	28.601375579834	204.4485626220704	-866.7692260742192	209.7293701171876	267.4870605468751	-843.3698730468755	284.9734802246095	274.305145263672	-735.6555786132815	621.1978149414065	34.97060775756837	-956.0148315429692	919.4746704101567	160.0906524658204	-966.5468750000005	897.4105834960942	175.4876861572266	-965.0952758789067	898.2703247070317	226.2153320312501	-950.3912963867192	925.2348022460942	248.9545135498048	-930.2465820312505	1060.969970703125	192.1963806152345	
66	0.465	-883.0840454101567	1357.006103515625	167.4229736328126	-918.246459960938	1262.857299804688	284.6550292968751	-769.335327148438	1256.563842773438	149.4608917236329	-718.1567993164065	1070.150390625	150.7653045654297	-747.5155029296877	878.6369628906255	296.7855529785157	-752.2861938476565	873.547241210938	70.69218444824222	-943.2849731445317	956.6463012695317	199.914031982422	-829.8710937500005	585.3538208007815	320.1217651367189	-820.6689453125005	509.1614074707034	299.0653076171876	-787.9840698242192	561.663024902344	303.071746826172	-829.6619262695317	16.00835800170899	269.6494750976564	-792.2697753906255	29.05904960632326	215.0265655517579	-727.7822875976565	562.0825195312502	51.43619537353518	-678.025817871094	620.9722290039065	35.80863189697267	-739.3049926757815	237.5306549072267	64.3526306152344	-694.7546997070315	259.6293029785157	62.53105545043948	-792.1010742187505	61.03051757812503	129.1208953857422	-608.960876464844	48.75889968872073	97.79497528076178	-650.8417968750002	36.16312408447267	59.89214706420901	-722.4769287109377	314.7286376953126	51.53686523437503	-889.7456665039067	249.0829925537111	287.4125976562501	-980.0253295898442	28.74851036071779	204.4291534423829	-866.1457519531255	209.6516723632814	267.5395812988282	-842.418090820313	284.788543701172	274.3470458984376	-728.0743408203127	620.9644165039065	35.68367767333986	-949.3822631835942	918.3889770507817	159.8081054687501	-959.8964233398442	896.3677368164067	175.1535339355469	-958.580444335938	897.2759399414067	225.881561279297	-943.9686889648442	924.2865600585942	248.6613159179689	-923.9891967773442	1060.1884765625	192.2632751464845	
67	0.47	-876.7758789062505	1356.178100585938	167.2954101562501	-911.5903930664067	1262.2587890625	284.8938293457032	-763.1070556640627	1255.697509765625	149.1905517578126	-711.9973754882815	1069.341552734375	150.7092285156251	-741.0979003906252	878.0433959960942	297.0129699707032	-745.2031860351565	873.1569213867192	70.91873931884768	-936.7524414062505	955.5548706054692	199.4835510253907	-825.8974609375005	585.0759887695315	320.141082763672	-817.6284179687505	508.8359985351565	298.910125732422	-784.3949584960942	561.0022583007815	302.665252685547	-829.6760253906255	16.01884841918946	269.6623840332032	-792.224975585938	29.02162551879884	214.9694671630861	-720.2580566406252	561.669128417969	52.06980895996097	-670.5574340820315	620.731872558594	36.65090560913087	-723.1834106445315	234.3236694335939	64.47251129150393	-679.4902954101565	258.062469482422	62.61632156372073	-769.2118530273442	56.01652145385745	128.6516723632813	-585.6195068359377	49.7582702636719	97.60826873779303	-627.0119628906252	35.79698181152345	59.62844085693362	-709.295349121094	312.0873107910157	51.81315231323245	-888.9600219726567	249.1111755371095	287.4861450195314	-980.0245971679692	28.91416549682619	204.4153594970704	-865.512084960938	209.5721282958986	267.6257324218751	-841.4463500976567	284.6002502441407	274.4313964843751	-720.603698730469	620.5395507812502	36.35058593750001	-942.7144165039067	917.189819335938	159.4673156738282	-953.2173461914067	895.216918945313	174.7569427490235	-952.0551147460942	896.1941528320317	225.4837036132814	-937.5456542968755	923.2487182617192	248.296600341797	-917.7222290039067	1059.302856445313	192.2823791503907	
